<mxfile host="Electron" agent="Mozilla/5.0 (Windows NT 10.0; Win64; x64) AppleWebKit/537.36 (KHTML, like Gecko) draw.io/25.0.1 Chrome/128.0.6613.186 Electron/32.2.6 Safari/537.36" version="25.0.1">
  <diagram name="Page-1" id="e7e014a7-5840-1c2e-5031-d8a46d1fe8dd">
    <mxGraphModel dx="915" dy="690" grid="1" gridSize="10" guides="1" tooltips="1" connect="1" arrows="1" fold="1" page="1" pageScale="1" pageWidth="1169" pageHeight="826" background="none" math="0" shadow="0">
      <root>
        <mxCell id="0" />
        <mxCell id="1" parent="0" />
        <mxCell id="J7kEjKrZXmkk3Sq2YOT_-41" value="Ввод данных о ракете" style="ellipse;whiteSpace=wrap;html=1;" vertex="1" parent="1">
          <mxGeometry x="310" y="350" width="120" height="80" as="geometry" />
        </mxCell>
        <mxCell id="J7kEjKrZXmkk3Sq2YOT_-42" value="Ввод данных о внешней среде" style="ellipse;whiteSpace=wrap;html=1;" vertex="1" parent="1">
          <mxGeometry x="310" y="480" width="120" height="80" as="geometry" />
        </mxCell>
        <mxCell id="J7kEjKrZXmkk3Sq2YOT_-43" value="Ввод данных о состоянии экипажа" style="ellipse;whiteSpace=wrap;html=1;" vertex="1" parent="1">
          <mxGeometry x="310" y="610" width="120" height="80" as="geometry" />
        </mxCell>
        <mxCell id="J7kEjKrZXmkk3Sq2YOT_-44" value="Анализ надежностных характеристик" style="ellipse;whiteSpace=wrap;html=1;" vertex="1" parent="1">
          <mxGeometry x="560" y="350" width="120" height="80" as="geometry" />
        </mxCell>
        <mxCell id="J7kEjKrZXmkk3Sq2YOT_-45" value="Пользователь" style="shape=umlActor;verticalLabelPosition=bottom;verticalAlign=top;html=1;outlineConnect=0;" vertex="1" parent="1">
          <mxGeometry x="110" y="453" width="30" height="60" as="geometry" />
        </mxCell>
        <mxCell id="J7kEjKrZXmkk3Sq2YOT_-48" value="Система" style="shape=umlActor;verticalLabelPosition=bottom;verticalAlign=top;html=1;outlineConnect=0;" vertex="1" parent="1">
          <mxGeometry x="850" y="470" width="30" height="60" as="geometry" />
        </mxCell>
        <mxCell id="J7kEjKrZXmkk3Sq2YOT_-51" value="Моделирование аварийных ситуаций" style="ellipse;whiteSpace=wrap;html=1;" vertex="1" parent="1">
          <mxGeometry x="560" y="480" width="120" height="80" as="geometry" />
        </mxCell>
        <mxCell id="J7kEjKrZXmkk3Sq2YOT_-52" value="Генерация отчета оценки рисков" style="ellipse;whiteSpace=wrap;html=1;" vertex="1" parent="1">
          <mxGeometry x="560" y="610" width="120" height="80" as="geometry" />
        </mxCell>
        <mxCell id="J7kEjKrZXmkk3Sq2YOT_-54" value="" style="endArrow=none;html=1;rounded=0;entryX=0;entryY=0.5;entryDx=0;entryDy=0;" edge="1" parent="1" target="J7kEjKrZXmkk3Sq2YOT_-41">
          <mxGeometry width="50" height="50" relative="1" as="geometry">
            <mxPoint x="150" y="473" as="sourcePoint" />
            <mxPoint x="550" y="600" as="targetPoint" />
          </mxGeometry>
        </mxCell>
        <mxCell id="J7kEjKrZXmkk3Sq2YOT_-55" value="" style="endArrow=none;html=1;rounded=0;entryX=0;entryY=0.5;entryDx=0;entryDy=0;" edge="1" parent="1" target="J7kEjKrZXmkk3Sq2YOT_-42">
          <mxGeometry width="50" height="50" relative="1" as="geometry">
            <mxPoint x="150" y="490" as="sourcePoint" />
            <mxPoint x="550" y="600" as="targetPoint" />
          </mxGeometry>
        </mxCell>
        <mxCell id="J7kEjKrZXmkk3Sq2YOT_-56" value="" style="endArrow=none;html=1;rounded=0;entryX=0;entryY=0.5;entryDx=0;entryDy=0;" edge="1" parent="1" target="J7kEjKrZXmkk3Sq2YOT_-43">
          <mxGeometry width="50" height="50" relative="1" as="geometry">
            <mxPoint x="150" y="510" as="sourcePoint" />
            <mxPoint x="550" y="600" as="targetPoint" />
          </mxGeometry>
        </mxCell>
        <mxCell id="J7kEjKrZXmkk3Sq2YOT_-57" value="" style="endArrow=none;html=1;rounded=0;exitX=1;exitY=0.5;exitDx=0;exitDy=0;" edge="1" parent="1" source="J7kEjKrZXmkk3Sq2YOT_-43">
          <mxGeometry width="50" height="50" relative="1" as="geometry">
            <mxPoint x="500" y="650" as="sourcePoint" />
            <mxPoint x="560" y="390" as="targetPoint" />
          </mxGeometry>
        </mxCell>
        <mxCell id="J7kEjKrZXmkk3Sq2YOT_-58" value="" style="endArrow=none;html=1;rounded=0;exitX=1;exitY=0.5;exitDx=0;exitDy=0;entryX=0;entryY=0.5;entryDx=0;entryDy=0;" edge="1" parent="1" source="J7kEjKrZXmkk3Sq2YOT_-42" target="J7kEjKrZXmkk3Sq2YOT_-44">
          <mxGeometry width="50" height="50" relative="1" as="geometry">
            <mxPoint x="500" y="650" as="sourcePoint" />
            <mxPoint x="550" y="600" as="targetPoint" />
          </mxGeometry>
        </mxCell>
        <mxCell id="J7kEjKrZXmkk3Sq2YOT_-59" value="" style="endArrow=none;html=1;rounded=0;exitX=1;exitY=0.5;exitDx=0;exitDy=0;entryX=0;entryY=0.5;entryDx=0;entryDy=0;" edge="1" parent="1" source="J7kEjKrZXmkk3Sq2YOT_-41" target="J7kEjKrZXmkk3Sq2YOT_-44">
          <mxGeometry width="50" height="50" relative="1" as="geometry">
            <mxPoint x="500" y="650" as="sourcePoint" />
            <mxPoint x="550" y="600" as="targetPoint" />
          </mxGeometry>
        </mxCell>
        <mxCell id="J7kEjKrZXmkk3Sq2YOT_-60" value="" style="endArrow=none;html=1;rounded=0;entryX=0.5;entryY=1;entryDx=0;entryDy=0;exitX=0.5;exitY=0;exitDx=0;exitDy=0;" edge="1" parent="1" source="J7kEjKrZXmkk3Sq2YOT_-51" target="J7kEjKrZXmkk3Sq2YOT_-44">
          <mxGeometry width="50" height="50" relative="1" as="geometry">
            <mxPoint x="500" y="650" as="sourcePoint" />
            <mxPoint x="550" y="600" as="targetPoint" />
          </mxGeometry>
        </mxCell>
        <mxCell id="J7kEjKrZXmkk3Sq2YOT_-61" value="" style="endArrow=none;html=1;rounded=0;entryX=0.5;entryY=1;entryDx=0;entryDy=0;exitX=0.5;exitY=0;exitDx=0;exitDy=0;" edge="1" parent="1" source="J7kEjKrZXmkk3Sq2YOT_-52" target="J7kEjKrZXmkk3Sq2YOT_-51">
          <mxGeometry width="50" height="50" relative="1" as="geometry">
            <mxPoint x="500" y="650" as="sourcePoint" />
            <mxPoint x="550" y="600" as="targetPoint" />
          </mxGeometry>
        </mxCell>
        <mxCell id="J7kEjKrZXmkk3Sq2YOT_-62" value="" style="endArrow=none;html=1;rounded=0;" edge="1" parent="1" source="J7kEjKrZXmkk3Sq2YOT_-52" target="J7kEjKrZXmkk3Sq2YOT_-48">
          <mxGeometry width="50" height="50" relative="1" as="geometry">
            <mxPoint x="500" y="650" as="sourcePoint" />
            <mxPoint x="550" y="600" as="targetPoint" />
          </mxGeometry>
        </mxCell>
        <mxCell id="J7kEjKrZXmkk3Sq2YOT_-63" value="" style="endArrow=none;html=1;rounded=0;exitX=1;exitY=0.5;exitDx=0;exitDy=0;" edge="1" parent="1" source="J7kEjKrZXmkk3Sq2YOT_-51" target="J7kEjKrZXmkk3Sq2YOT_-48">
          <mxGeometry width="50" height="50" relative="1" as="geometry">
            <mxPoint x="500" y="650" as="sourcePoint" />
            <mxPoint x="550" y="600" as="targetPoint" />
          </mxGeometry>
        </mxCell>
        <mxCell id="J7kEjKrZXmkk3Sq2YOT_-64" value="" style="endArrow=none;html=1;rounded=0;entryX=1;entryY=0.5;entryDx=0;entryDy=0;" edge="1" parent="1" target="J7kEjKrZXmkk3Sq2YOT_-44">
          <mxGeometry width="50" height="50" relative="1" as="geometry">
            <mxPoint x="850" y="500" as="sourcePoint" />
            <mxPoint x="550" y="600" as="targetPoint" />
          </mxGeometry>
        </mxCell>
      </root>
    </mxGraphModel>
  </diagram>
</mxfile>
